# xmcd CD database file
#
# Track frame offsets:
#	182
#	16210
#	32342
#	51765
#	68922
#	90392
#	107060
#	127407
#	141572
#	156845
#	172402
#	187302
#
# Disc length: 2678 seconds
#
# Revision: 0
# Processed by: cddbd v1.5.1PL0 Copyright (c) Steve Scherf et al.
# Submitted via: CDex 1.51
#
DISCID=b10a740c
DTITLE=Mino Reitano - Nuove Versioni
DYEAR=1900
DGENRE=Musica Italiana
TTITLE0=Una ragione di piu'
TTITLE1=Una ferita in fondo al cuore
TTITLE2=Innamorati
TTITLE3=Era il tempo delle more
TTITLE4=L'uomo e la valigia
TTITLE5=Italia
TTITLE6=Che mondo sara'
TTITLE7=Avevo un cuore che ti amava tanto
TTITLE8=Sogno
TTITLE9=Gente di fiumara
TTITLE10=Meglio una sera
TTITLE11=Una chitarra cento illusioni
EXTD=
EXTT0=
EXTT1=
EXTT2=
EXTT3=
EXTT4=
EXTT5=
EXTT6=
EXTT7=
EXTT8=
EXTT9=
EXTT10=
EXTT11=
PLAYORDER=
